<svg width="184" height="154" viewBox="0 0 184 154" fill="none" xmlns="http://www.w3.org/2000/svg">
<path d="M25.9265 148.467C18.2565 143.092 42.0337 26.3841 29.7616 26.3841C17.4895 26.3841 11.8354 26.2647 20.5575 11.0277C29.2796 -4.20934 178.104 -0.336265 181.629 11.0277C185.154 22.3916 181.629 26.3841 173.959 26.3841C166.289 26.3841 184.697 149.235 173.959 151.538C163.221 153.841 33.5966 153.842 25.9265 148.467Z" fill="#B3700D" stroke="#B3700D"/>
<path d="M10.5865 148.467C2.91637 143.092 26.6936 26.3841 14.4215 26.3841C2.14937 26.3841 -3.50473 26.2647 5.21738 11.0277C13.9395 -4.20934 162.764 -0.336265 166.289 11.0277C169.814 22.3916 166.289 26.3841 158.619 26.3841C150.949 26.3841 169.357 149.235 158.619 151.538C147.881 153.841 18.2565 153.842 10.5865 148.467Z" fill="#CC800E" stroke="#B3700D"/>
<path d="M23.8184 140.021C18.2566 135.414 28.6132 17.9378 23.8184 20.2411C19.0235 22.5445 10.0215 21.1806 13.6545 14.0986C17.2876 7.01656 152.547 6.18947 157.085 14.0985C161.622 22.0076 145.579 20.2411 149.415 24.848C153.25 29.4549 153.25 134.646 149.415 140.021C145.58 145.395 29.3802 144.628 23.8184 140.021Z" fill="#FFD596" stroke="#FEDD9E"/>
<ellipse cx="58.9078" cy="107.772" rx="4.60204" ry="4.60691" fill="#B3700D"/>
<ellipse cx="104.928" cy="107.772" rx="4.60204" ry="4.60691" fill="#B3700D"/>
<line x1="63.5099" y1="125.2" x2="100.326" y2="125.2" stroke="#B3700D" stroke-width="2"/>
</svg>
